<?xml version="1.0" encoding="utf-8"?>
<!-- Generator: Adobe Illustrator 19.0.0, SVG Export Plug-In . SVG Version: 6.00 Build 0)  -->
<svg version="1.1" id="Layer_1" xmlns="http://www.w3.org/2000/svg" xmlns:xlink="http://www.w3.org/1999/xlink" x="0px" y="0px"
	 viewBox="0 0 288 288" style="enable-background:new 0 0 288 288;" xml:space="preserve">
<style type="text/css">
	.st0{fill:#FFFFFF;}
</style>
<g id="XMLID_138_">
	<path id="XMLID_231_" class="st0" d="M220.2,176.2c0,2.7,0,5.3,0,8.2c0.8,0,1.5,0,2.2,0c5.7,0,11.4,0,17.1,0
		c8.9,0.1,14.8,6,14.9,14.9c0,13.4,0,26.8,0,40.3c0,8.8-6,14.9-14.9,14.9c-58.5,0-117.1,0-175.6,0c-8.9,0-14.9-6-14.9-14.9
		c0-13.7,0-27.4,0-41c0-7.5,5.5-13.7,13-14.1c6.1-0.3,12.3-0.1,18.5-0.2c0.8,0,1.7,0,2.7,0c0-2.8,0-5.5,0-8.4c-0.7,0-1.3,0-2,0
		c-6.1,0-12.2,0-18.3,0c-7.4,0-13.8-5.9-13.8-13.3c-0.2-14.6-0.2-29.2,0-43.8c0.1-7,6.6-12.9,14-13c6-0.1,11.9,0,17.9,0
		c0.7,0,1.4,0,2.2,0c0-2.8,0-5.5,0-8.4c-3.1,0-6.2,0-9.2,0c-4,0-8,0.1-12-0.1C54.7,97,49.1,91.1,49,83.8c-0.1-14.3-0.1-28.6,0-43
		c0-7.1,6.3-13,13.8-13.4c0.5,0,1,0,1.6,0c58.2,0,116.4,0,174.6,0c6,0,10.8,2.2,13.6,7.7c1,2.1,1.6,4.6,1.7,6.9
		c0.2,13.8,0.1,27.6,0.1,41.4c0,7.6-5.7,13.7-13.3,14.1c-6.1,0.3-12.3,0.1-18.5,0.1c-0.8,0-1.5,0-2.4,0c0,2.8,0,5.5,0,8.4
		c0.7,0,1.4,0,2,0c5.8,0,11.7,0,17.5,0c8.5,0,14.6,6.1,14.6,14.6c0,13.7,0,27.4,0,41c0,9-7.8,14.8-14.6,14.4
		c-6.3-0.3-12.7-0.1-19.1,0C220.6,176,220.5,176.1,220.2,176.2z M151.8,191.8c-29,0-58,0.1-86.9-0.1c-5.8,0-8.7,3.1-8.6,8.6
		c0.3,13,0.1,26.1,0.1,39.1c0,5.2,2.5,7.7,7.8,7.7c6.4,0,12.7,0,19.1,0c51.7,0,103.5,0,155.2,0.1c5.1,0,8.8-2.1,8.7-8.7
		c-0.2-12.9-0.1-25.8-0.1-38.7c0-0.9,0-1.8-0.2-2.7c-0.7-3.5-3.4-5.3-7.7-5.3C210,191.8,180.9,191.8,151.8,191.8z M151.5,90.2
		c29.2,0,58.3,0,87.5,0c5.5,0,7.9-2.5,7.9-8c0-13.2,0-26.3,0-39.5c0-5.4-2.5-7.9-8-7.9c-16.7,0-33.4,0-50.2,0
		c-41.6,0-83.1,0-124.7,0c-5.2,0-7.8,2.5-7.8,7.7c0,13.4,0,26.7,0,40.1c0,0.9,0,1.8,0.2,2.7c0.8,3.2,3.4,4.9,7.6,4.9
		C93.3,90.2,122.4,90.2,151.5,90.2z M151.9,113.3c-29.3,0-58.6,0-87.9,0c-5.1,0-7.6,2.5-7.6,7.6c0,13.3,0.1,26.6-0.1,39.9
		c-0.1,4.6,2.8,7.9,7.8,7.9c58.3-0.1,116.7-0.1,175,0c5.1,0,8-3.4,7.9-7.9c-0.2-13.1-0.2-26.2,0-39.3c0.1-4.7-2.4-8.4-8.3-8.3
		C209.8,113.4,180.8,113.3,151.9,113.3z"/>
	<path id="XMLID_218_" class="st0" d="M176.7,211.4c13.5,0,27,0,40.4,0c4.5,0,6.2,1.7,6.3,6.2c0,1.7,0,3.4-0.1,5.1
		c-0.2,2.5-1.6,4.2-4.1,4.7c-0.9,0.2-1.8,0.2-2.7,0.2c-26.6,0-53.1,0-79.7,0c-5.1,0-7-1.9-7-7.1c0-1.2,0-2.3,0-3.5
		c0.1-3.7,2-5.6,5.7-5.6C149.3,211.4,163,211.4,176.7,211.4z"/>
	<path id="XMLID_217_" class="st0" d="M109.7,219.3c0,8.3-6.6,15-14.8,15c-8.3,0-15-6.6-15-14.9c-0.1-8.2,6.7-15,14.9-15
		C103,204.4,109.7,211.1,109.7,219.3z"/>
	<path id="XMLID_216_" class="st0" d="M176.5,70.6c-13.7,0-27.5-0.1-41.2,0.1c-3.3,0-5.4-2.6-5.5-5.1c-0.1-2.1-0.1-4.2,0-6.2
		c0.1-2.3,1.4-3.9,3.6-4.6c1-0.3,2.2-0.4,3.3-0.4c26.6,0,53.3,0,79.9,0c1,0,2.1,0.1,3.1,0.3c2.1,0.5,3.5,2.1,3.6,4.3
		c0.1,2.3,0.2,4.5,0,6.8c-0.2,3.1-2.1,4.8-5.2,4.8C204.3,70.6,190.4,70.6,176.5,70.6z"/>
	<path id="XMLID_215_" class="st0" d="M109.7,62.5c0,8.3-6.6,15-14.9,15c-8.2,0-15-6.7-15-14.9c0-8.2,6.7-15,14.9-15
		C103,47.6,109.7,54.2,109.7,62.5z"/>
	<path id="XMLID_214_" class="st0" d="M176.6,149.1c-13.7,0-27.4,0-41,0c-3.5,0-5.6-2-5.7-5.5c-0.1-1.8-0.1-3.6,0-5.4
		c0.1-3.1,2-5,5.1-5.3c0.5,0,1,0,1.6,0c26.8,0,53.5,0,80.3,0c4.8,0,6.6,1.8,6.6,6.5c0,1.6,0.1,3.1,0,4.7c-0.2,3.3-2.1,5.1-5.4,5.1
		C204.2,149.1,190.4,149.1,176.6,149.1z"/>
	<path id="XMLID_213_" class="st0" d="M109.7,141c0,8.3-6.6,14.9-14.9,14.9c-8.3,0-15-6.7-15-14.9c0-8.2,6.7-14.9,15-14.9
		C103.1,126.1,109.7,132.7,109.7,141z"/>
</g>
</svg>
