<?xml version="1.0" encoding="iso-8859-1"?>
<!-- Generator: Adobe Illustrator 19.0.0, SVG Export Plug-In . SVG Version: 6.00 Build 0)  -->
<svg xmlns="http://www.w3.org/2000/svg" xmlns:xlink="http://www.w3.org/1999/xlink" version="1.1" id="Capa_1" x="0px" y="0px" viewBox="0 0 384 384" style="enable-background:new 0 0 384 384;" xml:space="preserve" width="512px" height="512px">
<g>
	<g>
		<g>
			<path d="M42.667,256H0v85.333C0,364.907,19.093,384,42.667,384H128v-42.667H42.667V256z" fill="#FFFFFF"/>
			<path d="M42.667,42.667H128V0H42.667C19.093,0,0,19.093,0,42.667V128h42.667V42.667z" fill="#FFFFFF"/>
			<path d="M341.333,0H256v42.667h85.333V128H384V42.667C384,19.093,364.907,0,341.333,0z" fill="#FFFFFF"/>
			<path d="M192,106.667c-47.147,0-85.333,38.187-85.333,85.333s38.187,85.333,85.333,85.333s85.333-38.187,85.333-85.333     S239.147,106.667,192,106.667z M192,234.667c-23.573,0-42.667-19.093-42.667-42.667s19.093-42.667,42.667-42.667     s42.667,19.093,42.667,42.667S215.573,234.667,192,234.667z" fill="#FFFFFF"/>
			<path d="M341.333,341.333H256V384h85.333C364.907,384,384,364.907,384,341.333V256h-42.667V341.333z" fill="#FFFFFF"/>
		</g>
	</g>
</g>
<g>
</g>
<g>
</g>
<g>
</g>
<g>
</g>
<g>
</g>
<g>
</g>
<g>
</g>
<g>
</g>
<g>
</g>
<g>
</g>
<g>
</g>
<g>
</g>
<g>
</g>
<g>
</g>
<g>
</g>
</svg>
